<?xml version="1.0" encoding="UTF-8"?>
<svg width="185px" height="65px" viewBox="0 0 185 65" version="1.1" xmlns="http://www.w3.org/2000/svg" xmlns:xlink="http://www.w3.org/1999/xlink">
    <!-- Generator: sketchtool 63.1 (101010) - https://sketch.com -->
    <title>5A05A05F-341F-4BE1-8FA5-0A27A41D3819</title>
    <desc>Created with sketchtool.</desc>
    <g id="✓-M_Sticky_Bar" stroke="none" stroke-width="1" fill="none" fill-rule="evenodd">
        <g id="M_Sticky_Bar/Sticky_Bar_123_Scrolled-L" transform="translate(-125.000000, 0.000000)">
            <g id="Group-2" transform="translate(125.000000, 0.000000)">
                <rect id="Rectangle" fill="#FFA500" x="0" y="0" width="185" height="65"></rect>
                <g id="continental_logo-9e4b34b69f" transform="translate(16.000000, 20.000000)" fill="#000000" fill-rule="nonzero">
                    <path d="M152.389997,21.4199996 L131.809998,21.4199996 L131.809998,20.7199996 L152.389997,20.7199996 L152.389997,21.4199996 L152.389997,21.4199996 Z M142.029998,17.4999997 L143.989998,15.6099997 L144.759998,16.3799997 L142.659998,18.1299997 C142.519998,18.3399997 142.379998,18.6899997 142.239998,18.8999997 L140.699998,18.8999997 C140.839998,18.4099997 141.609998,17.7099997 142.029998,17.4999997 L142.029998,17.4999997 Z M135.589998,5.5999999 C135.519998,5.5999999 133.979998,6.0199999 133.979998,6.0199999 C133.979998,6.0199999 133.279998,6.29999989 132.929998,6.50999989 C132.579998,6.71999989 132.229998,7.06999988 132.229998,7.27999988 L133.629998,7.62999987 C133.839998,7.41999987 134.049998,7.13999988 134.259998,6.99999988 L134.609998,6.85999988 L135.729998,5.6699999 C135.729998,5.6699999 135.659998,5.5999999 135.589998,5.5999999 L135.589998,5.5999999 Z M144.899998,9.37999984 C143.989998,8.39999986 143.289998,7.48999987 142.589998,6.43999989 C143.079998,5.52999991 143.359998,3.21999995 143.149998,2.30999996 C143.079998,2.02999997 142.309998,1.04999998 142.169998,0.839999986 C141.959998,0.699999988 141.329998,0 141.049998,0 C140.979998,0 140.909998,0 140.909998,0.0699999988 L140.979998,0.839999986 C140.139998,1.39999998 139.089998,2.09999996 138.109998,2.79999995 C138.109998,3.07999995 138.109998,3.5 138.179998,3.63999994 C138.319998,3.77999994 138.529998,3.84999993 138.669998,3.91999993 C139.019998,3.84999993 140.209998,3.56999994 140.559998,3.56999994 L139.369998,5.31999991 L138.039998,6.29999989 L136.359998,5.7399999 C136.219998,5.7399999 136.149998,5.7399999 136.079998,5.8099999 L134.889998,7.13999988 C134.819998,7.20999988 134.749998,7.27999988 134.749998,7.41999987 L134.679998,8.88999985 C134.679998,8.88999985 134.679998,9.09999985 134.679998,9.37999984 C134.679998,10.4299998 135.169998,10.9899998 135.169998,10.9899998 L135.939998,9.79999983 C135.799998,9.65999984 135.659998,9.16999984 135.589998,8.95999985 C135.589998,8.88999985 135.589998,7.69999987 135.589998,7.69999987 L136.359998,7.13999988 L138.459998,8.60999985 C138.459998,8.60999985 139.019998,9.65999984 139.579998,10.2899998 C139.929998,10.7099998 141.749998,11.8999998 142.589998,12.4599998 C142.659998,12.9499998 142.869998,13.6499998 143.009998,14.0699998 L145.529998,16.6599997 L144.059998,18.5499997 C143.499998,18.8999997 143.009998,19.5299997 143.079998,20.0899997 L144.829998,20.0899997 L145.039998,19.1099997 L147.139997,16.7999997 C147.279997,16.6599997 147.279997,16.5899997 147.209997,16.4499997 L146.649998,14.4899998 C146.929997,14.1399998 147.559997,13.2999998 147.559997,12.3199998 C147.489997,10.4299998 145.529998,9.93999983 144.899998,9.37999984 L144.899998,9.37999984 Z M148.119997,12.4599998 C147.979997,11.9699998 147.769997,11.4099998 147.629997,11.1299998 C147.629997,11.1299998 147.699997,11.0599998 147.909997,11.1299998 C148.049997,11.2699998 149.169997,11.9699998 149.169997,11.9699998 C149.729997,12.7399998 150.079997,16.0299997 150.079997,17.2199997 C149.589997,17.0099997 148.889997,16.5899997 148.399997,16.1699997 L148.119997,12.4599998 L148.119997,12.4599998 Z" id="Shape"></path>
                    <path d="M94.5699984,11.7599998 C94.5699984,10.4999998 94.1499984,9.51999984 93.0999984,9.51999984 C91.9799984,9.51999984 91.5599984,10.4999998 91.5599984,11.7599998 L91.5599984,20.0899997 L92.8199984,20.0899997 L92.8199984,21.4199996 L85.7499985,21.4199996 L85.7499985,20.0899997 L87.0799985,20.0899997 L87.0799985,8.60999985 L85.7499985,8.60999985 L85.7499985,7.34999987 L91.2799984,7.34999987 L91.2799984,9.51999984 L91.3499984,9.51999984 C91.9099984,8.32999986 93.0999984,7.06999988 95.0599984,7.06999988 C97.1599983,7.06999988 98.4199983,8.32999986 98.7699983,10.0099998 C98.9099983,10.6399998 98.9799983,11.7599998 98.9799983,12.3199998 L98.9799983,20.1599997 L100.659998,20.1599997 L100.659998,21.4899996 L94.4999984,21.4899996 L94.5699984,11.7599998 L94.5699984,11.7599998 Z M66.1499989,11.7599998 C66.1499989,10.4999998 65.7299989,9.51999984 64.6799989,9.51999984 C63.5599989,9.51999984 63.1399989,10.4999998 63.1399989,11.7599998 L63.1399989,20.0899997 L64.3999989,20.0899997 L64.3999989,21.4199996 L57.329999,21.4199996 L57.329999,20.0899997 L58.659999,20.0899997 L58.659999,8.60999985 L57.329999,8.60999985 L57.329999,7.34999987 L62.8599989,7.34999987 L62.8599989,9.51999984 L62.9299989,9.51999984 C63.4899989,8.32999986 64.6799989,7.06999988 66.6399989,7.06999988 C68.7399988,7.06999988 69.9999988,8.32999986 70.3499988,10.0099998 C70.4899988,10.6399998 70.5599988,11.7599998 70.5599988,12.3199998 L70.5599988,20.1599997 L72.2399988,20.1599997 L72.2399988,21.4899996 L66.0799989,21.4899996 L66.1499989,11.7599998 L66.1499989,11.7599998 Z M106.679998,8.60999985 L106.679998,19.0399997 C106.679998,19.7399997 107.169998,19.9499997 107.589998,19.9499997 C108.009998,19.9499997 108.429998,19.8099997 108.429998,19.8099997 L108.429998,21.0699996 C108.429998,21.0699996 107.589998,21.6299996 105.699998,21.6299996 C103.529998,21.6299996 102.199998,20.5799996 102.199998,18.2699997 L102.199998,8.60999985 L100.729998,8.60999985 L100.729998,7.62999987 C102.409998,6.29999989 104.369998,4.75999992 105.909998,3.49999994 L106.749998,3.49999994 L106.749998,7.27999988 L108.919998,7.27999988 L108.919998,8.53999985 L106.679998,8.60999985 L106.679998,8.60999985 Z M18.7599997,0 C18.7599997,0 22.1899996,3.42999994 23.7299996,5.17999991 L23.7299996,6.50999989 C22.2599996,4.96999992 19.2499997,3.70999994 16.4499997,3.70999994 C10.0799998,3.70999994 6.0899999,8.46999986 6.0899999,14.4199998 C6.0899999,20.2999997 9.86999983,25.1299996 16.4499997,25.1299996 C19.7399997,25.1299996 22.3299996,23.5899996 23.7999996,21.9799996 L23.7999996,23.2399996 C21.8399996,25.9699996 18.1999997,27.7199995 13.6499998,27.7199995 C5.5999999,27.7199995 0,21.8399996 0,14.3499998 C0,6.85999988 6.1599999,1.04999998 13.6499998,1.04999998 C15.5399997,1.04999998 17.2899997,1.39999998 18.7599997,1.88999997 L18.7599997,0 L18.7599997,0 Z M83.7199986,17.6399997 C83.0899988,18.4099997 82.1099986,18.9699997 80.6399986,18.9699997 C79.3799986,18.9699997 77.3499987,18.2699997 77.2799987,14.9799997 L84.8399986,14.9799997 C84.8399986,14.6999997 84.9099986,14.2099998 84.9099986,13.9999998 C84.9099986,10.0099998 83.2999986,7.06999988 79.0299987,7.06999988 C74.7599987,7.06999988 72.5899988,10.3599998 72.5899988,14.4199998 C72.5899988,18.4799997 74.7599987,21.6999996 79.0299987,21.6999996 C81.7599986,21.6999996 83.5099986,20.4399997 84.4899986,18.4099997 L83.7199986,17.6399997 L83.7199986,17.6399997 Z M77.2799987,13.5799998 C77.2799987,9.86999983 77.5599987,8.46999986 78.8199987,8.46999986 C80.0799986,8.46999986 80.3599986,9.79999983 80.4299986,13.5799998 L77.2799987,13.5799998 L77.2799987,13.5799998 Z M15.1199997,14.3499998 C15.1199997,10.0099998 15.5399997,8.11999986 17.0099997,8.11999986 C18.4799997,8.11999986 18.8999997,10.0099998 18.8999997,14.3499998 C18.8999997,18.6199999 18.4799997,20.5799996 17.0099997,20.5799996 C15.4699997,20.5099997 15.1199997,18.6199999 15.1199997,14.3499998 M9.86999983,14.3499998 C9.86999983,18.6199997 12.4599998,22.0499996 16.9399997,22.0499996 C21.4199996,22.0499996 24.0099996,18.6199997 24.0099996,14.3499998 C24.0099996,10.0799998 21.4199996,6.64999989 16.9399997,6.64999989 C12.4599998,6.64999989 9.86999983,10.0799998 9.86999983,14.3499998 M34.0199994,11.7599998 C34.0199994,10.4999998 33.5999994,9.51999984 32.5499994,9.51999984 C31.4299995,9.51999984 31.0099995,10.4999998 31.0099995,11.7599998 L31.0099995,20.0899997 L32.2699995,20.0899997 L32.2699995,21.4199996 L25.1999996,21.4199996 L25.1999996,20.0899997 L26.5299995,20.0899997 L26.5299995,8.60999985 L25.1999996,8.60999985 L25.1999996,7.34999987 L30.7299995,7.34999987 L30.7299995,9.51999984 L30.7999995,9.51999984 C31.3599995,8.32999986 32.5499994,7.06999988 34.5099994,7.06999988 C36.6099994,7.06999988 37.8699994,8.32999986 38.2199993,10.0099998 C38.3599993,10.6399998 38.4299993,11.7599998 38.4299993,12.3199998 L38.4299993,20.1599997 L40.1099993,20.1599997 L40.1099993,21.4899996 L33.9499994,21.4899996 L34.0199994,11.7599998 L34.0199994,11.7599998 Z M49.9799991,3.56999994 C49.9799991,4.82999992 51.0999991,5.6699999 52.7099991,5.6699999 C54.3199991,5.6699999 55.4399991,4.82999992 55.4399991,3.56999994 C55.4399991,2.30999996 54.3199991,1.46999997 52.7099991,1.46999997 C51.0999991,1.53999997 49.9799991,2.30999996 49.9799991,3.56999994 M46.1299992,8.60999985 L46.1299992,19.0399997 C46.1299992,19.7399997 46.6199992,19.9499997 47.0399992,19.9499997 C47.4599992,19.9499997 47.8799992,19.8099997 47.8799992,19.8099997 L47.8799992,21.0699996 C47.8799992,21.0699996 47.0399992,21.6299996 45.1499992,21.6299996 C42.9799993,21.6299996 41.6499993,20.5799996 41.6499993,18.2699997 L41.6499993,8.60999985 L40.1799993,8.60999985 L40.1799993,7.62999987 C41.7899993,6.29999989 43.7499993,4.82999992 45.2899992,3.49999994 L46.1299992,3.49999994 L46.1299992,7.27999988 L47.8799992,7.27999988 L47.8799992,8.53999985 L46.1299992,8.53999985 L46.1299992,8.60999985 Z M128.449998,20.0899997 L130.199998,20.0899997 L130.199998,21.4199996 L124.039998,21.4199996 L124.039998,3.42999994 L122.499998,3.42999994 L122.499998,2.09999996 L128.519998,2.09999996 L128.519998,20.0899997 L128.449998,20.0899997 Z M116.549998,14.4199998 C116.409998,14.2799998 116.129998,14.1399998 115.569998,14.1399998 C114.239998,14.1399998 113.959998,15.4699997 113.959998,16.7999997 C113.959998,18.1299997 114.379998,19.1799997 115.499998,19.1799997 C116.059998,19.1799997 116.409998,18.9699997 116.549998,18.7599997 L116.549998,14.4199998 L116.549998,14.4199998 Z M116.689998,19.7399997 L116.689998,19.7399997 C115.779998,20.9299996 114.729998,21.6999996 113.049998,21.6999996 C110.739998,21.6999996 109.339998,19.7399997 109.339998,17.4299997 C109.339998,14.6299998 111.369998,12.8099998 114.519998,12.8099998 C115.849998,12.8099998 116.549998,13.0899998 116.549998,13.0899998 L116.549998,12.1799998 C116.549998,10.4999998 115.499998,9.58999984 113.959998,9.58999984 C111.859998,9.58999984 110.739998,11.2699998 110.739998,11.2699998 L109.969998,10.2899998 C111.369998,8.11999986 113.539998,7.06999988 115.569998,7.06999988 C118.999998,7.06999988 121.029998,9.09999985 121.029998,12.1799998 L121.029998,20.0899997 L122.429998,20.0899997 L122.429998,21.4199996 L116.759998,21.4199996 L116.689998,19.7399997 L116.689998,19.7399997 Z M49.1399992,21.4199996 L49.1399992,20.0899997 L50.3999991,20.0899997 L50.3999991,8.60999985 L49.1399992,8.60999985 L49.1399992,7.34999987 L54.8799991,7.34999987 L54.8799991,20.0899997 L56.209999,20.0899997 L56.209999,21.4199996 L49.1399992,21.4199996 L49.1399992,21.4199996 Z" id="Shape"></path>
                </g>
            </g>
        </g>
    </g>
</svg>